<svg xmlns="http://www.w3.org/2000/svg" xmlns:xlink="http://www.w3.org/1999/xlink" viewBox="0 0 1280 740" width="1280" height="740" role="img" aria-label="Siddhi Verma - Web Developer">
<title>Siddhi Verma — Web Developer</title>
<defs>
<style type="text/css"><![CDATA[
text{font-family:'SFMono-Regular',Consolas,'Liberation Mono',Menlo,monospace}
@keyframes fadeIn{from{opacity:0}to{opacity:1}}
@keyframes popIn{0%{opacity:0;transform:translateY(14px) scale(.7)}70%{opacity:1;transform:translateY(-3px) scale(1.06)}100%{opacity:1;transform:translateY(0) scale(1)}}
@keyframes blink{0%,49%{opacity:1}50%,100%{opacity:0}}
@keyframes floaty{0%,100%{transform:translateY(0)}50%{transform:translateY(-9px)}}
@keyframes floaty2{0%,100%{transform:translateY(0) rotate(0deg)}50%{transform:translateY(-12px) rotate(5deg)}}
@keyframes neonFlicker{0%{opacity:0}5%{opacity:.7}7%{opacity:.1}10%{opacity:.9}12%{opacity:.3}16%,100%{opacity:1}}
@keyframes neonPulse{0%,100%{opacity:.55}50%{opacity:1}}
@keyframes twinkle{0%,100%{opacity:0;transform:scale(.4)}50%{opacity:1;transform:scale(1)}}
@keyframes scroll{0%{transform:translateY(0)}100%{transform:translateY(-120px)}}
.ltr{opacity:0;animation:popIn .5s cubic-bezier(.2,.8,.3,1.3) forwards;transform-box:fill-box;transform-origin:center bottom}
.ii,.pill,.soc,.st,.cl{opacity:0}
.pill{transition:transform .2s ease,filter .2s ease;transform-box:fill-box;transform-origin:center;cursor:pointer}
.pill:hover{transform:scale(1.08);filter:brightness(1.35)}
.cur{animation:blink 1s step-end infinite}
.tw{transform-box:fill-box;transform-origin:center;animation:twinkle 2.6s ease-in-out infinite}
.fl{animation:floaty 5s ease-in-out infinite}
.fl2{transform-box:fill-box;transform-origin:center;animation:floaty2 4.2s ease-in-out infinite}
.neon-on{animation:neonFlicker 2.4s ease 3.2s backwards}
.np{animation:neonPulse 2.6s ease-in-out infinite}
.sep{stroke:#2a1f3d;stroke-width:1;opacity:.7}
]]></style>

<linearGradient id="bg" x1="0" y1="0" x2="1" y2="1">
  <stop offset="0%" stop-color="#120b20"/><stop offset="55%" stop-color="#170e28"/><stop offset="100%" stop-color="#0e0918"/>
</linearGradient>
<linearGradient id="nameg" x1="0" y1="0" x2="1" y2="0">
  <stop offset="0%"><animate attributeName="stop-color" values="#ff7eb6;#c084fc;#8b5cf6;#ff7eb6" dur="7s" repeatCount="indefinite"/></stop>
  <stop offset="55%"><animate attributeName="stop-color" values="#e879f9;#ff7eb6;#c084fc;#e879f9" dur="7s" repeatCount="indefinite"/></stop>
  <stop offset="100%"><animate attributeName="stop-color" values="#c084fc;#8b5cf6;#ff7eb6;#c084fc" dur="7s" repeatCount="indefinite"/></stop>
</linearGradient>
<linearGradient id="borderg" x1="0" y1="0" x2="1" y2="1">
  <stop offset="0%" stop-color="#ff7eb6" stop-opacity=".35"/>
  <stop offset="50%" stop-color="#c084fc" stop-opacity=".3"/>
  <stop offset="100%" stop-color="#8b5cf6" stop-opacity=".35"/>
</linearGradient>
<radialGradient id="orbC"><stop offset="0%" stop-color="#ff7eb6" stop-opacity=".12"/><stop offset="100%" stop-color="#ff7eb6" stop-opacity="0"/></radialGradient>
<radialGradient id="orbB"><stop offset="0%" stop-color="#8b5cf6" stop-opacity=".12"/><stop offset="100%" stop-color="#8b5cf6" stop-opacity="0"/></radialGradient>
<radialGradient id="screenGlow"><stop offset="0%" stop-color="#c084fc" stop-opacity=".22"/><stop offset="100%" stop-color="#c084fc" stop-opacity="0"/></radialGradient>
<filter id="glow"><feGaussianBlur stdDeviation="2.5" result="b"/><feMerge><feMergeNode in="b"/><feMergeNode in="SourceGraphic"/></feMerge></filter>
<filter id="glowBig"><feGaussianBlur stdDeviation="6" result="b"/><feMerge><feMergeNode in="b"/><feMergeNode in="SourceGraphic"/></feMerge></filter>
<pattern id="dots" width="30" height="30" patternUnits="userSpaceOnUse"><circle cx="15" cy="15" r=".6" fill="rgba(125,211,252,.10)"/></pattern>

<clipPath id="cPrompt"><rect x="48" y="48" width="0" height="32"><animate attributeName="width" from="0" to="380" dur="1s" begin=".3s" fill="freeze"/></rect></clipPath>
<clipPath id="cHi"><rect x="48" y="86" width="0" height="46"><animate attributeName="width" from="0" to="330" dur=".6s" begin="1.2s" fill="freeze"/></rect></clipPath>
<clipPath id="q1"><rect x="52" y="258" width="0" height="30"><animate attributeName="width" from="0" to="420" dur=".7s" begin="3.4s" fill="freeze"/></rect></clipPath>
<clipPath id="q2"><rect x="52" y="286" width="0" height="30"><animate attributeName="width" from="0" to="360" dur=".6s" begin="4.2s" fill="freeze"/></rect></clipPath>
<!-- Cycling roles: 4 roles, 24s -->
<clipPath id="r1"><rect x="48" y="212" width="0" height="36"><animate attributeName="width" values="0;0;300;300;0;0" keyTimes="0;.01;.07;.2;.24;1" dur="24s" repeatCount="indefinite" begin="2.9s"/></rect></clipPath>
<clipPath id="r2"><rect x="48" y="212" width="0" height="36"><animate attributeName="width" values="0;0;300;300;0;0" keyTimes="0;.26;.32;.45;.49;1" dur="24s" repeatCount="indefinite" begin="2.9s"/></rect></clipPath>
<clipPath id="r3"><rect x="48" y="212" width="0" height="36"><animate attributeName="width" values="0;0;300;300;0;0" keyTimes="0;.51;.57;.7;.74;1" dur="24s" repeatCount="indefinite" begin="2.9s"/></rect></clipPath>
<clipPath id="r4"><rect x="48" y="212" width="0" height="36"><animate attributeName="width" values="0;0;300;300;0;0" keyTimes="0;.76;.82;.95;.99;1" dur="24s" repeatCount="indefinite" begin="2.9s"/></rect></clipPath>
<linearGradient id="scanEdge" x1="0" y1="0" x2="1" y2="0">
  <stop offset="0%" stop-color="#ff7eb6" stop-opacity="0"/><stop offset="18%" stop-color="#ff7eb6"/>
  <stop offset="50%" stop-color="#e879f9"/><stop offset="82%" stop-color="#c084fc"/>
  <stop offset="100%" stop-color="#c084fc" stop-opacity="0"/>
</linearGradient>
<linearGradient id="scanTrail" x1="0" y1="0" x2="0" y2="1">
  <stop offset="0%" stop-color="#ff7eb6" stop-opacity="0"/><stop offset="100%" stop-color="#ff7eb6" stop-opacity=".2"/>
</linearGradient>
<clipPath id="screenReveal"><rect x="722" y="152" width="558" height="0">
  <animate attributeName="height" from="0" to="440" dur="1.6s" begin=".5s" fill="freeze"/>
</rect></clipPath>
<clipPath id="screenBox"><rect x="722" y="152" width="558" height="440" rx="14"/></clipPath>
<clipPath id="bannerBox"><rect x="0" y="0" width="1280" height="740"/></clipPath>
<clipPath id="codeLinesClip"><rect x="750" y="188" width="502" height="368"/></clipPath>
</defs>

<!-- ================= BACKGROUND ================= -->
<rect width="1280" height="740" rx="22" fill="url(#bg)"/>
<rect width="1280" height="740" rx="22" fill="url(#dots)"/>
<rect x="1.5" y="1.5" width="1277" height="737" rx="21" fill="none" stroke="url(#borderg)" stroke-width="2"/>
<circle class="fl" cx="150" cy="640" r="170" fill="url(#orbC)"/>
<circle class="fl" cx="1180" cy="120" r="220" fill="url(#orbB)" style="animation-delay:1.4s"/>
<g class="tw" style="animation-delay:.2s"><circle cx="500" cy="60" r="2" fill="#e879f9"/></g>
<g class="tw" style="animation-delay:1.1s"><circle cx="960" cy="640" r="2.4" fill="#ff7eb6"/></g>
<g class="tw" style="animation-delay:.6s"><circle cx="640" cy="30" r="1.8" fill="#c084fc"/></g>
<g class="tw" style="animation-delay:1.7s"><circle cx="360" cy="600" r="2" fill="#e879f9"/></g>

<!-- ================= TERMINAL / INTRO TEXT ================= -->
<g clip-path="url(#cPrompt)">
  <text x="48" y="72" font-size="22" font-weight="bold" fill="#c084fc"><tspan fill="#a78bfa">$</tspan> whoami</text>
</g>
<rect x="292" y="52" width="12" height="24" fill="#ff7eb6" class="cur" opacity="0" style="animation:blink 1s step-end 1.3s infinite"/>

<g clip-path="url(#cHi)">
  <text x="48" y="120" font-size="42" font-weight="800" fill="url(#nameg)" filter="url(#glow)">Siddhi Verma</text>
</g>

<g font-size="27" font-weight="700">
  <g clip-path="url(#r1)"><text x="48" y="242" fill="#e879f9">Web Developer</text></g>
  <g clip-path="url(#r2)"><text x="48" y="242" fill="#e879f9">React &amp; TypeScript</text></g>
  <g clip-path="url(#r3)"><text x="48" y="242" fill="#e879f9">Exploring AI / CV</text></g>
  <g clip-path="url(#r4)"><text x="48" y="242" fill="#e879f9">Open to Work 🟢</text></g>
</g>

<g clip-path="url(#q1)">
  <text x="52" y="280" font-size="19" fill="#8fb4c9">Turning ideas into clean, working interfaces.</text>
</g>
<g clip-path="url(#q2)">
  <text x="52" y="308" font-size="19" fill="#8fb4c9">CSE student &amp; full-stack builder-in-progress.</text>
</g>

<!-- decorative stat pills -->
<g class="pill ltr" style="animation-delay:4.6s">
  <rect x="52" y="332" width="152" height="40" rx="20" fill="#211538" stroke="#3b2a5c"/>
  <text x="128" y="357" text-anchor="middle" font-size="14" fill="#ff7eb6" font-weight="600">💻 6+ Projects</text>
</g>
<g class="pill ltr" style="animation-delay:4.8s">
  <rect x="216" y="332" width="150" height="40" rx="20" fill="#211538" stroke="#3b2a5c"/>
  <text x="291" y="357" text-anchor="middle" font-size="14" fill="#ff7eb6" font-weight="600">🎓 Final Year CSE</text>
</g>

<!-- ================= CODE CARD ================= -->
<g class="cl" style="animation:fadeIn .5s ease 1.4s forwards">
  <rect x="52" y="404" width="322" height="216" rx="12" fill="#160f26" fill-opacity=".95" stroke="#3b2a5c" stroke-width="1.2"/>
  <rect x="52" y="404" width="322" height="28" rx="12" fill="#211538"/>
  <rect x="52" y="420" width="322" height="12" fill="#211538"/>
  <circle cx="72" cy="418" r="4.5" fill="#ff5f57"/><circle cx="88" cy="418" r="4.5" fill="#febc2e"/><circle cx="104" cy="418" r="4.5" fill="#28c840"/>
  <text x="213" y="422" text-anchor="middle" font-size="11" fill="#8b949e">Developer.tsx</text>
</g>
<g font-size="12.5">
  <text class="cl" x="68" y="454" style="animation:fadeIn .3s ease 1.8s forwards"><tspan fill="#ff7eb6">const</tspan><tspan fill="#e879f9"> siddhi</tspan><tspan fill="#e6edf3"> = {</tspan></text>
  <text class="cl" x="82" y="474" style="animation:fadeIn .3s ease 2.1s forwards"><tspan fill="#c084fc">role</tspan><tspan fill="#e6edf3">: </tspan><tspan fill="#fde047">"Web Developer"</tspan><tspan fill="#e6edf3">,</tspan></text>
  <text class="cl" x="82" y="494" style="animation:fadeIn .3s ease 2.4s forwards"><tspan fill="#c084fc">stack</tspan><tspan fill="#e6edf3">: [</tspan><tspan fill="#fde047">"React"</tspan><tspan fill="#e6edf3">,</tspan></text>
  <text class="cl" x="106" y="512" style="animation:fadeIn .3s ease 2.6s forwards"><tspan fill="#fde047">"TypeScript"</tspan><tspan fill="#e6edf3">,</tspan></text>
  <text class="cl" x="106" y="530" style="animation:fadeIn .3s ease 2.8s forwards"><tspan fill="#fde047">"Tailwind"</tspan><tspan fill="#e6edf3">],</tspan></text>
  <text class="cl" x="82" y="550" style="animation:fadeIn .3s ease 3.05s forwards"><tspan fill="#c084fc">learning</tspan><tspan fill="#e6edf3">: </tspan><tspan fill="#fde047">"OpenCV"</tspan><tspan fill="#e6edf3">,</tspan></text>
  <text class="cl" x="82" y="570" style="animation:fadeIn .3s ease 3.3s forwards"><tspan fill="#c084fc">openToWork</tspan><tspan fill="#e6edf3">: </tspan><tspan fill="#4ade80">true</tspan></text>
  <text class="cl" x="68" y="590" style="animation:fadeIn .3s ease 3.5s forwards"><tspan fill="#e6edf3">};</tspan></text>
</g>

<!-- ================= RIGHT: ILLUSTRATED CHARACTER SCENE ================= -->
<g>
  <circle cx="1000" cy="380" r="270" fill="url(#screenGlow)"/>
  <g clip-path="url(#screenReveal)">
    <g transform="translate(722,152)">
      <!-- ground shadow -->
      <ellipse cx="279" cy="426" rx="185" ry="16" fill="#08050f" opacity=".5"/>

      <!-- wicker chair back -->
      <ellipse cx="279" cy="248" rx="152" ry="176" fill="#241536"/>
      <ellipse cx="279" cy="248" rx="152" ry="176" fill="none" stroke="#3b2a5c" stroke-width="2"/>
      <g stroke="#3b2a5c" stroke-width="2" fill="none" opacity=".8">
        <path d="M140 150 Q279 100 418 150"/>
        <path d="M132 210 Q279 150 426 210"/>
        <path d="M128 270 Q279 205 430 270"/>
        <path d="M132 330 Q279 270 426 330"/>
        <path d="M148 380 Q279 335 410 380"/>
      </g>

      <!-- side table -->
      <g>
        <ellipse cx="470" cy="336" rx="58" ry="14" fill="#2d1b4e"/>
        <rect x="446" y="336" width="8" height="72" fill="#2d1b4e"/>
        <rect x="486" y="336" width="8" height="72" fill="#2d1b4e"/>
        <!-- books -->
        <rect x="418" y="316" width="58" height="14" rx="3" fill="#ff7eb6"/>
        <rect x="422" y="302" width="50" height="14" rx="3" fill="#c084fc"/>
        <rect x="426" y="288" width="42" height="14" rx="3" fill="#8b5cf6"/>
        <text x="447" y="298" text-anchor="middle" font-size="8" fill="#1d1330" font-weight="700">JS</text>
        <!-- coffee cup -->
        <g class="fl" style="animation-duration:4s">
          <path d="M498 312 h26 v18 a13 13 0 0 1 -26 0 z" fill="#f5f0ff"/>
          <path d="M524 316 q10 0 10 8 t-10 8" fill="none" stroke="#f5f0ff" stroke-width="3"/>
          <path d="M505 300 q3 -6 0 -10" stroke="#c084fc" stroke-width="2" fill="none" opacity=".7"/>
          <path d="M515 300 q3 -6 0 -10" stroke="#c084fc" stroke-width="2" fill="none" opacity=".7"/>
        </g>
        <!-- plant -->
        <g transform="translate(400,270)">
          <path d="M0 40 h26 l-4 22 h-18 z" fill="#8b5cf6"/>
          <path d="M13 40 q-16 -14 -14 -34 q18 4 18 22 q10 -16 26 -14 q0 20 -18 26 q10 6 8 18" fill="#4ade80" opacity=".9"/>
        </g>
      </g>

      <!-- ===== girl illustration ===== -->
      <g>
        <!-- legs crossed -->
        <path d="M215 330 q10 60 -10 96 q30 14 55 -4 q-14 -46 -8 -94 z" fill="#3b3f6b"/>
        <path d="M330 330 q-4 58 22 90 q-26 18 -54 4 q6 -48 -6 -96 z" fill="#4a4f82"/>
        <ellipse cx="257" cy="428" rx="20" ry="9" fill="#241536"/>
        <ellipse cx="356" cy="422" rx="19" ry="9" fill="#241536"/>

        <!-- torso / hoodie -->
        <path d="M212 200 q4 -46 67 -46 q63 0 68 46 q10 66 -6 132 q-62 22 -124 0 q-15 -66 -5 -132 z" fill="#f5ead8"/>
        <path d="M279 154 q-30 0 -44 22 q22 12 44 12 q22 0 44 -12 q-14 -22 -44 -22 z" fill="#e9dcc4"/>
        <!-- hoodie strings -->
        <circle cx="264" cy="196" r="3" fill="#c084fc"/><circle cx="294" cy="196" r="3" fill="#c084fc"/>

        <!-- arms holding laptop -->
        <path d="M214 224 q-30 20 -22 62 q4 20 30 22 l6 -26 q-14 -6 -14 -28 q0 -18 10 -26 z" fill="#f5ead8"/>
        <path d="M344 224 q30 20 22 62 q-4 20 -30 22 l-6 -26 q14 -6 14 -28 q0 -18 -10 -26 z" fill="#f5ead8"/>

        <!-- laptop on lap -->
        <g transform="translate(213,268)">
          <path d="M0 62 h132 l10 14 h-152 z" fill="#2d1b4e"/>
          <rect x="10" y="0" width="112" height="64" rx="4" fill="#160f26" stroke="#3b2a5c" stroke-width="2"/>
          <rect x="16" y="6" width="100" height="52" rx="2" fill="#1d1330"/>
          <g font-size="6.5" font-family="monospace">
            <text x="21" y="18" fill="#ff7eb6">const</text>
            <text x="21" y="27" fill="#c084fc">&lt;Hero /&gt;</text>
            <text x="21" y="36" fill="#e879f9">&lt;Projects /&gt;</text>
            <text x="21" y="45" fill="#4ade80">build();</text>
            <rect x="21" y="49" width="7" height="7" fill="#ff7eb6" class="cur" opacity="0" style="animation:blink 1s step-end 2.4s infinite"/>
          </g>
        </g>

        <!-- neck + head -->
        <rect x="264" y="142" width="30" height="26" rx="10" fill="#f2c9a0"/>
        <circle cx="279" cy="118" r="46" fill="#f6d3ac"/>

        <!-- hair back -->
        <path d="M233 96 q-14 60 4 108 q10 -6 8 -22 q10 40 34 46 q6 -22 -2 -40 q16 26 36 22 q8 -20 -4 -40 q14 16 28 8 q6 -66 -32 -92 q-40 -22 -72 10 z" fill="#3a2418"/>
        <!-- hair front / fringe -->
        <path d="M236 100 q6 -40 43 -46 q43 -6 56 30 q-14 -14 -34 -14 q4 10 -2 20 q-10 -14 -24 -12 q2 12 -6 20 q-8 -10 -18 -6 q0 10 -8 16 q-10 -4 -7 -8 z" fill="#4a2c1a"/>

        <!-- headphones -->
        <path d="M229 108 q0 -58 50 -58 q50 0 50 58" fill="none" stroke="#c084fc" stroke-width="7" stroke-linecap="round"/>
        <rect x="219" y="100" width="16" height="26" rx="7" fill="#8b5cf6"/>
        <rect x="323" y="100" width="16" height="26" rx="7" fill="#8b5cf6"/>

        <!-- face -->
        <path d="M262 122 q4 6 10 0" stroke="#3a2418" stroke-width="2.4" fill="none" stroke-linecap="round"/>
        <path d="M286 122 q4 6 10 0" stroke="#3a2418" stroke-width="2.4" fill="none" stroke-linecap="round"/>
        <path d="M270 138 q9 8 18 0" stroke="#b0563a" stroke-width="2.4" fill="none" stroke-linecap="round"/>
        <circle cx="258" cy="132" r="6" fill="#ff9fb8" opacity=".55"/>
        <circle cx="300" cy="132" r="6" fill="#ff9fb8" opacity=".55"/>
      </g>

      <!-- floating hearts + sparkles -->
      <g class="fl2" style="animation-delay:.3s">
        <path transform="translate(66,60) scale(1.1)" d="M8 14 C-2 6 -2 -4 6 -4 c3 0 5 2 6 4 c1 -2 3 -4 6 -4 c8 0 8 10 -2 18 z" fill="#ff7eb6" opacity="0"><animate attributeName="opacity" from="0" to=".9" dur=".6s" begin="4.4s" fill="freeze"/></path>
      </g>
      <g class="fl2" style="animation-delay:1s">
        <path transform="translate(470,120) scale(.85)" d="M8 14 C-2 6 -2 -4 6 -4 c3 0 5 2 6 4 c1 -2 3 -4 6 -4 c8 0 8 10 -2 18 z" fill="#e879f9" opacity="0"><animate attributeName="opacity" from="0" to=".85" dur=".6s" begin="4.7s" fill="freeze"/></path>
      </g>
      <g class="fl2" style="animation-delay:.6s">
        <path transform="translate(48,340)" d="M9 0 L11 7 L18 9 L11 11 L9 18 L7 11 L0 9 L7 7 Z" fill="#c084fc" opacity="0"><animate attributeName="opacity" from="0" to=".9" dur=".6s" begin="5s" fill="freeze"/></path>
      </g>
      <g class="fl2" style="animation-delay:1.3s">
        <path transform="translate(500,60) scale(.8)" d="M9 0 L11 7 L18 9 L11 11 L9 18 L7 11 L0 9 L7 7 Z" fill="#ff7eb6" opacity="0"><animate attributeName="opacity" from="0" to=".9" dur=".6s" begin="5.3s" fill="freeze"/></path>
      </g>
    </g>
  </g>

  <!-- floating tech badges around the illustration -->
  <g class="fl2" style="animation-delay:.2s">
    <g transform="translate(700,150)"><rect width="86" height="34" rx="17" fill="#211538" stroke="#c084fc" opacity="0"><animate attributeName="opacity" from="0" to=".95" dur=".5s" begin="4s" fill="freeze"/></rect>
      <text x="43" y="22" text-anchor="middle" font-size="13" fill="#ff7eb6" font-weight="700" opacity="0"><animate attributeName="opacity" from="0" to="1" dur=".5s" begin="4s" fill="freeze"/>React</text></g>
  </g>
  <g class="fl2" style="animation-delay:1.1s">
    <g transform="translate(1180,230)"><rect width="86" height="34" rx="17" fill="#211538" stroke="#c084fc" opacity="0"><animate attributeName="opacity" from="0" to=".95" dur=".5s" begin="4.3s" fill="freeze"/></rect>
      <text x="43" y="22" text-anchor="middle" font-size="13" fill="#ff7eb6" font-weight="700" opacity="0"><animate attributeName="opacity" from="0" to="1" dur=".5s" begin="4.3s" fill="freeze"/>TypeScript</text></g>
  </g>
  <g class="fl2" style="animation-delay:.6s">
    <g transform="translate(700,600)"><rect width="96" height="34" rx="17" fill="#211538" stroke="#c084fc" opacity="0"><animate attributeName="opacity" from="0" to=".95" dur=".5s" begin="4.6s" fill="freeze"/></rect>
      <text x="48" y="22" text-anchor="middle" font-size="13" fill="#ff7eb6" font-weight="700" opacity="0"><animate attributeName="opacity" from="0" to="1" dur=".5s" begin="4.6s" fill="freeze"/>Tailwind</text></g>
  </g>
  <g class="fl2" style="animation-delay:1.6s">
    <g transform="translate(1170,600)"><rect width="86" height="34" rx="17" fill="#211538" stroke="#c084fc" opacity="0"><animate attributeName="opacity" from="0" to=".95" dur=".5s" begin="4.9s" fill="freeze"/></rect>
      <text x="43" y="22" text-anchor="middle" font-size="13" fill="#ff7eb6" font-weight="700" opacity="0"><animate attributeName="opacity" from="0" to="1" dur=".5s" begin="4.9s" fill="freeze"/>OpenCV</text></g>
  </g>
</g>

<!-- Neon sign -->
<g class="neon-on">
  <rect x="1012" y="42" width="238" height="98" rx="14" fill="none" stroke="#c084fc" stroke-width="1.5" opacity=".5" filter="url(#glow)"/>
  <text class="np" x="1131" y="82" text-anchor="middle" font-size="21" font-weight="bold" fill="#ff7eb6" filter="url(#glowBig)" letter-spacing="2" style="animation-delay:.2s">KEEP BUILDING</text>
  <text class="np" x="1131" y="112" text-anchor="middle" font-size="21" font-weight="bold" fill="#c084fc" filter="url(#glow)" letter-spacing="1.5" style="animation-delay:1.3s">KEEP SHIPPING</text>
</g>

<!-- ================= FOOTER ================= -->
<line x1="48" y1="676" x2="1232" y2="676" class="sep" stroke-dasharray="1184" stroke-dashoffset="1184">
  <animate attributeName="stroke-dashoffset" from="1184" to="0" dur=".7s" begin="7.2s" fill="freeze"/>
</line>
<g class="soc" style="animation:fadeIn .5s ease 7.4s forwards">
  <g transform="translate(48,692) scale(.8)"><path d="M12 0c-6.626 0-12 5.373-12 12 0 5.302 3.438 9.8 8.207 11.387.599.111.793-.261.793-.577v-2.234c-3.338.726-4.033-1.416-4.033-1.416-.546-1.387-1.333-1.756-1.333-1.756-1.089-.745.083-.729.083-.729 1.205.084 1.839 1.237 1.839 1.237 1.07 1.834 2.807 1.304 3.492.997.107-.775.418-1.305.762-1.604-2.665-.305-5.467-1.334-5.467-5.931 0-1.311.469-2.381 1.236-3.221-.124-.303-.535-1.524.117-3.176 0 0 1.008-.322 3.301 1.23.957-.266 1.983-.399 3.003-.404 1.02.005 2.047.138 3.006.404 2.291-1.552 3.297-1.23 3.297-1.23.653 1.653.242 2.874.118 3.176.77.84 1.235 1.911 1.235 3.221 0 4.609-2.807 5.624-5.479 5.921.43.372.823 1.102.823 2.222v3.293c0 .319.192.694.801.576 4.765-1.589 8.199-6.086 8.199-11.386 0-6.627-5.373-12-12-12z" fill="#c9d1d9"/></g>
  <text x="74" y="707" font-size="12.5" fill="#c9d1d9">Siddhi-verma-web</text>
  <g transform="translate(240,693) scale(.8)"><rect x="1" y="3" width="22" height="17" rx="3.5" fill="none" stroke="#ff7eb6" stroke-width="2"/><path d="M2.5 5.5 12 13l9.5-7.5" fill="none" stroke="#ff7eb6" stroke-width="2" stroke-linecap="round" stroke-linejoin="round"/></g>
  <text x="266" y="707" font-size="12.5" fill="#c9d1d9">vbhoomi324@gmail.com</text>
  <g transform="translate(480,692) scale(.8)"><path d="M20.447 20.452h-3.554v-5.569c0-1.328-.027-3.037-1.852-3.037-1.853 0-2.136 1.445-2.136 2.939v5.667H9.351V9h3.414v1.561h.046c.477-.9 1.637-1.85 3.37-1.85 3.601 0 4.267 2.37 4.267 5.455v6.286zM5.337 7.433a2.062 2.062 0 1 1 0-4.124 2.062 2.062 0 0 1 0 4.124zM7.114 20.452H3.56V9h3.554v11.452zM22.225 0H1.771C.792 0 0 .774 0 1.729v20.542C0 23.227.792 24 1.771 24h20.451C23.2 24 24 23.227 24 22.271V1.729C24 .774 23.2 0 22.222 0h.003z" fill="#c084fc"/></g>
  <text x="506" y="707" font-size="12.5" fill="#c9d1d9">siddhiverma</text>
</g>
<text class="soc" x="1232" y="707" text-anchor="end" font-size="13" style="animation:fadeIn .5s ease 7.6s forwards"><tspan fill="#8b949e">“</tspan><tspan fill="#e879f9">Code is my craft, curiosity is my compass.</tspan><tspan fill="#8b949e">” </tspan><tspan fill="#ff7eb6">✦</tspan></text>
<text class="soc" x="750" y="707" font-size="11.5" style="animation:fadeIn .5s ease 7.5s forwards"><tspan fill="#28c840">●</tspan><tspan fill="#8b949e"> open to collaborate</tspan></text>

<!-- full-banner scanner: sweeps top to bottom continuously -->
<g clip-path="url(#bannerBox)" opacity="0">
  <animate attributeName="opacity" from="0" to="1" dur=".6s" begin="3s" fill="freeze"/>
  <g>
    <animateTransform attributeName="transform" type="translate" values="0,-40;0,780" dur="3.5s" begin="3s" repeatCount="indefinite"/>
    <rect x="0" y="-34" width="1280" height="34" fill="url(#scanTrail)"/>
    <rect x="0" y="0" width="1280" height="2.6" fill="url(#scanEdge)" opacity=".6" filter="url(#glow)"/>
  </g>
</g>
</svg>
